<svg id="visual" viewBox="0 0 900 600" width="900" height="600" xmlns="http://www.w3.org/2000/svg" xmlns:xlink="http://www.w3.org/1999/xlink" version="1.1"><g stroke-width="1" stroke-linejoin="bevel"><path d="M495 316.1L448 368.9L489 336.9Z" fill="#1497d4" stroke="#1497d4"></path><path d="M495 316.1L396 365.6L448 368.9Z" fill="#0089bc" stroke="#0089bc"></path><path d="M495 316.1L311 291.1L396 365.6Z" fill="#121b1c" stroke="#121b1c"></path><path d="M392 520.3L514 397.6L448 368.9Z" fill="#006d8c" stroke="#006d8c"></path><path d="M448 368.9L514 397.6L489 336.9Z" fill="#007ba4" stroke="#007ba4"></path><path d="M489 336.9L514 397.6L495 316.1Z" fill="#006d8c" stroke="#006d8c"></path><path d="M495 316.1L625 319.9L507 248.1Z" fill="#1497d4" stroke="#1497d4"></path><path d="M311 291.1L315 315.9L396 365.6Z" fill="#005f76" stroke="#005f76"></path><path d="M507 248.1L311 291.1L495 316.1Z" fill="#14282b" stroke="#14282b"></path><path d="M305 389.6L315 373.6L239 404.9Z" fill="#007ba4" stroke="#007ba4"></path><path d="M315 315.9L315 373.6L396 365.6Z" fill="#075161" stroke="#075161"></path><path d="M396 365.6L392 520.3L448 368.9Z" fill="#007ba4" stroke="#007ba4"></path><path d="M239 404.9L315 373.6L222 395.9Z" fill="#13353b" stroke="#13353b"></path><path d="M315 373.6L305 389.6L396 365.6Z" fill="#007ba4" stroke="#007ba4"></path><path d="M507 248.1L322 194.4L311 291.1Z" fill="#121b1c" stroke="#121b1c"></path><path d="M322 194.4L274 263.1L311 291.1Z" fill="#0c0d0d" stroke="#0c0d0d"></path><path d="M311 291.1L274 263.1L315 315.9Z" fill="#0c0d0d" stroke="#0c0d0d"></path><path d="M507 248.1L396 141.4L322 194.4Z" fill="#13353b" stroke="#13353b"></path><path d="M514 397.6L625 319.9L495 316.1Z" fill="#0c0d0d" stroke="#0c0d0d"></path><path d="M507 248.1L462 109.4L396 141.4Z" fill="#075161" stroke="#075161"></path><path d="M392 520.3L579 449.3L514 397.6Z" fill="#0c0d0d" stroke="#0c0d0d"></path><path d="M514 397.6L579 449.3L625 319.9Z" fill="#121b1c" stroke="#121b1c"></path><path d="M523 106.4L462 109.4L507 248.1Z" fill="#075161" stroke="#075161"></path><path d="M725 324.9L645 295.1L625 319.9Z" fill="#075161" stroke="#075161"></path><path d="M625 319.9L645 295.1L507 248.1Z" fill="#0c0d0d" stroke="#0c0d0d"></path><path d="M305 389.6L332 496.3L396 365.6Z" fill="#0c0d0d" stroke="#0c0d0d"></path><path d="M332 496.3L392 520.3L396 365.6Z" fill="#1497d4" stroke="#1497d4"></path><path d="M222 395.9L315 373.6L315 315.9Z" fill="#121b1c" stroke="#121b1c"></path><path d="M305 389.6L228 445.6L332 496.3Z" fill="#13353b" stroke="#13353b"></path><path d="M396 141.4L300 134.7L322 194.4Z" fill="#075161" stroke="#075161"></path><path d="M322 194.4L238 208.1L274 263.1Z" fill="#13353b" stroke="#13353b"></path><path d="M274 263.1L222 395.9L315 315.9Z" fill="#006d8c" stroke="#006d8c"></path><path d="M312 29.7L300 134.7L396 141.4Z" fill="#121b1c" stroke="#121b1c"></path><path d="M657 113.4L523 106.4L507 248.1Z" fill="#0f434d" stroke="#0f434d"></path><path d="M300 134.7L238 208.1L322 194.4Z" fill="#075161" stroke="#075161"></path><path d="M144 235.4L222 395.9L274 263.1Z" fill="#1497d4" stroke="#1497d4"></path><path d="M239 404.9L228 445.6L305 389.6Z" fill="#14282b" stroke="#14282b"></path><path d="M505 600L593 477.3L579 449.3Z" fill="#0089bc" stroke="#0089bc"></path><path d="M579 449.3L666 439.6L625 319.9Z" fill="#0089bc" stroke="#0089bc"></path><path d="M222 395.9L228 445.6L239 404.9Z" fill="#1497d4" stroke="#1497d4"></path><path d="M593 477.3L666 439.6L579 449.3Z" fill="#0089bc" stroke="#0089bc"></path><path d="M666 439.6L682 417.6L625 319.9Z" fill="#13353b" stroke="#13353b"></path><path d="M261 600L334 567.3L332 496.3Z" fill="#121b1c" stroke="#121b1c"></path><path d="M332 496.3L334 567.3L392 520.3Z" fill="#006d8c" stroke="#006d8c"></path><path d="M392 520.3L490 600L579 449.3Z" fill="#005f76" stroke="#005f76"></path><path d="M725 324.9L705 223.4L645 295.1Z" fill="#006d8c" stroke="#006d8c"></path><path d="M645 295.1L657 113.4L507 248.1Z" fill="#006d8c" stroke="#006d8c"></path><path d="M682 417.6L725 324.9L625 319.9Z" fill="#121b1c" stroke="#121b1c"></path><path d="M415 0L386 20.7L462 109.4Z" fill="#121b1c" stroke="#121b1c"></path><path d="M462 109.4L386 20.7L396 141.4Z" fill="#007ba4" stroke="#007ba4"></path><path d="M240 62.7L146 228.4L238 208.1Z" fill="#0f434d" stroke="#0f434d"></path><path d="M358 600L490 600L392 520.3Z" fill="#0089bc" stroke="#0089bc"></path><path d="M593 477.3L727 507.3L666 439.6Z" fill="#006d8c" stroke="#006d8c"></path><path d="M705 223.4L657 113.4L645 295.1Z" fill="#005f76" stroke="#005f76"></path><path d="M523 106.4L532 19.7L462 109.4Z" fill="#1497d4" stroke="#1497d4"></path><path d="M490 600L505 600L579 449.3Z" fill="#0f434d" stroke="#0f434d"></path><path d="M261 600L358 600L334 567.3Z" fill="#006d8c" stroke="#006d8c"></path><path d="M334 567.3L358 600L392 520.3Z" fill="#006d8c" stroke="#006d8c"></path><path d="M240 62.7L238 208.1L300 134.7Z" fill="#0089bc" stroke="#0089bc"></path><path d="M238 208.1L144 235.4L274 263.1Z" fill="#0f434d" stroke="#0f434d"></path><path d="M222 395.9L145 451.6L228 445.6Z" fill="#005f76" stroke="#005f76"></path><path d="M146 228.4L144 235.4L238 208.1Z" fill="#13353b" stroke="#13353b"></path><path d="M584 0L532 19.7L523 106.4Z" fill="#13353b" stroke="#13353b"></path><path d="M386 20.7L312 29.7L396 141.4Z" fill="#075161" stroke="#075161"></path><path d="M494 0L415 0L462 109.4Z" fill="#0089bc" stroke="#0089bc"></path><path d="M386 20.7L415 0L312 29.7Z" fill="#005f76" stroke="#005f76"></path><path d="M312 29.7L240 62.7L300 134.7Z" fill="#0089bc" stroke="#0089bc"></path><path d="M532 19.7L494 0L462 109.4Z" fill="#005f76" stroke="#005f76"></path><path d="M100 324.9L145 451.6L222 395.9Z" fill="#13353b" stroke="#13353b"></path><path d="M228 445.6L261 600L332 496.3Z" fill="#075161" stroke="#075161"></path><path d="M802 380.6L725 324.9L682 417.6Z" fill="#121b1c" stroke="#121b1c"></path><path d="M802 380.6L767 314.9L725 324.9Z" fill="#0c0d0d" stroke="#0c0d0d"></path><path d="M725 324.9L770 290.1L705 223.4Z" fill="#006d8c" stroke="#006d8c"></path><path d="M747 154.4L689 71.7L657 113.4Z" fill="#0089bc" stroke="#0089bc"></path><path d="M144 235.4L100 324.9L222 395.9Z" fill="#121b1c" stroke="#121b1c"></path><path d="M76 213.1L100 324.9L144 235.4Z" fill="#0c0d0d" stroke="#0c0d0d"></path><path d="M767 314.9L770 290.1L725 324.9Z" fill="#1497d4" stroke="#1497d4"></path><path d="M212 600L261 600L228 445.6Z" fill="#0f434d" stroke="#0f434d"></path><path d="M646 33.7L584 0L523 106.4Z" fill="#0089bc" stroke="#0089bc"></path><path d="M532 19.7L584 0L494 0Z" fill="#0f434d" stroke="#0f434d"></path><path d="M900 295.9L777 252.1L770 290.1Z" fill="#007ba4" stroke="#007ba4"></path><path d="M770 290.1L777 252.1L705 223.4Z" fill="#075161" stroke="#075161"></path><path d="M657 113.4L646 33.7L523 106.4Z" fill="#075161" stroke="#075161"></path><path d="M689 71.7L646 33.7L657 113.4Z" fill="#0f434d" stroke="#0f434d"></path><path d="M747 154.4L657 113.4L705 223.4Z" fill="#0089bc" stroke="#0089bc"></path><path d="M777 252.1L747 154.4L705 223.4Z" fill="#0089bc" stroke="#0089bc"></path><path d="M0 407.6L126 474.3L145 451.6Z" fill="#075161" stroke="#075161"></path><path d="M145 451.6L166 570.3L228 445.6Z" fill="#0c0d0d" stroke="#0c0d0d"></path><path d="M691 600L727 507.3L593 477.3Z" fill="#0f434d" stroke="#0f434d"></path><path d="M666 439.6L727 507.3L682 417.6Z" fill="#005f76" stroke="#005f76"></path><path d="M166 570.3L212 600L228 445.6Z" fill="#007ba4" stroke="#007ba4"></path><path d="M62 48.7L76 213.1L146 228.4Z" fill="#121b1c" stroke="#121b1c"></path><path d="M146 228.4L76 213.1L144 235.4Z" fill="#005f76" stroke="#005f76"></path><path d="M100 324.9L0 407.6L145 451.6Z" fill="#0089bc" stroke="#0089bc"></path><path d="M724 0L646 33.7L689 71.7Z" fill="#007ba4" stroke="#007ba4"></path><path d="M724 0L641 0L646 33.7Z" fill="#007ba4" stroke="#007ba4"></path><path d="M646 33.7L641 0L584 0Z" fill="#121b1c" stroke="#121b1c"></path><path d="M727 507.3L802 380.6L682 417.6Z" fill="#006d8c" stroke="#006d8c"></path><path d="M767 314.9L900 298.1L770 290.1Z" fill="#005f76" stroke="#005f76"></path><path d="M126 474.3L166 570.3L145 451.6Z" fill="#121b1c" stroke="#121b1c"></path><path d="M312 29.7L225 0L240 62.7Z" fill="#0f434d" stroke="#0f434d"></path><path d="M240 62.7L62 48.7L146 228.4Z" fill="#13353b" stroke="#13353b"></path><path d="M415 0L225 0L312 29.7Z" fill="#006d8c" stroke="#006d8c"></path><path d="M505 600L691 600L593 477.3Z" fill="#121b1c" stroke="#121b1c"></path><path d="M727 507.3L798 507.3L802 380.6Z" fill="#14282b" stroke="#14282b"></path><path d="M225 0L172 0L240 62.7Z" fill="#13353b" stroke="#13353b"></path><path d="M775 600L798 507.3L727 507.3Z" fill="#1497d4" stroke="#1497d4"></path><path d="M777 252.1L798 108.7L747 154.4Z" fill="#121b1c" stroke="#121b1c"></path><path d="M747 154.4L798 108.7L689 71.7Z" fill="#13353b" stroke="#13353b"></path><path d="M900 128.4L798 108.7L777 252.1Z" fill="#0f434d" stroke="#0f434d"></path><path d="M798 108.7L724 0L689 71.7Z" fill="#121b1c" stroke="#121b1c"></path><path d="M0 207.1L0 293.9L76 213.1Z" fill="#0089bc" stroke="#0089bc"></path><path d="M76 213.1L0 293.9L100 324.9Z" fill="#13353b" stroke="#13353b"></path><path d="M126 474.3L43 600L166 570.3Z" fill="#0f434d" stroke="#0f434d"></path><path d="M0 293.9L0 407.6L100 324.9Z" fill="#007ba4" stroke="#007ba4"></path><path d="M691 600L775 600L727 507.3Z" fill="#007ba4" stroke="#007ba4"></path><path d="M0 173.4L0 207.1L76 213.1Z" fill="#075161" stroke="#075161"></path><path d="M172 0L62 48.7L240 62.7Z" fill="#0089bc" stroke="#0089bc"></path><path d="M0 89.7L0 173.4L76 213.1Z" fill="#14282b" stroke="#14282b"></path><path d="M802 380.6L900 298.1L767 314.9Z" fill="#007ba4" stroke="#007ba4"></path><path d="M900 460.6L900 298.1L802 380.6Z" fill="#13353b" stroke="#13353b"></path><path d="M900 460.6L802 380.6L798 507.3Z" fill="#13353b" stroke="#13353b"></path><path d="M900 298.1L900 295.9L770 290.1Z" fill="#0f434d" stroke="#0f434d"></path><path d="M172 0L80 0L62 48.7Z" fill="#13353b" stroke="#13353b"></path><path d="M62 48.7L0 89.7L76 213.1Z" fill="#0f434d" stroke="#0f434d"></path><path d="M775 600L819 600L798 507.3Z" fill="#007ba4" stroke="#007ba4"></path><path d="M0 0L0 89.7L62 48.7Z" fill="#121b1c" stroke="#121b1c"></path><path d="M0 546.3L43 600L126 474.3Z" fill="#1497d4" stroke="#1497d4"></path><path d="M166 570.3L43 600L212 600Z" fill="#0089bc" stroke="#0089bc"></path><path d="M900 499.3L900 460.6L798 507.3Z" fill="#1497d4" stroke="#1497d4"></path><path d="M798 108.7L818 0L724 0Z" fill="#007ba4" stroke="#007ba4"></path><path d="M900 84.7L818 0L798 108.7Z" fill="#007ba4" stroke="#007ba4"></path><path d="M0 407.6L0 546.3L126 474.3Z" fill="#0f434d" stroke="#0f434d"></path><path d="M900 295.9L900 128.4L777 252.1Z" fill="#005f76" stroke="#005f76"></path><path d="M819 600L900 499.3L798 507.3Z" fill="#007ba4" stroke="#007ba4"></path><path d="M900 128.4L900 84.7L798 108.7Z" fill="#121b1c" stroke="#121b1c"></path><path d="M0 546.3L0 600L43 600Z" fill="#005f76" stroke="#005f76"></path><path d="M80 0L0 0L62 48.7Z" fill="#0c0d0d" stroke="#0c0d0d"></path><path d="M819 600L900 600L900 499.3Z" fill="#0089bc" stroke="#0089bc"></path><path d="M900 84.7L900 0L818 0Z" fill="#0f434d" stroke="#0f434d"></path></g></svg>