<svg id="visual" viewBox="0 0 900 600" width="900" height="600" xmlns="http://www.w3.org/2000/svg" xmlns:xlink="http://www.w3.org/1999/xlink" version="1.1"><rect x="0" y="0" width="900" height="600" fill="#000000"></rect><path d="M0 315L129 315L129 369L257 369L257 382L386 382L386 257L514 257L514 377L643 377L643 284L771 284L771 345L900 345L900 303L900 601L900 601L771 601L771 601L643 601L643 601L514 601L514 601L386 601L386 601L257 601L257 601L129 601L129 601L0 601Z" fill="#001122"></path><path d="M0 363L129 363L129 363L257 363L257 434L386 434L386 400L514 400L514 439L643 439L643 360L771 360L771 371L900 371L900 399L900 601L900 601L771 601L771 601L643 601L643 601L514 601L514 601L386 601L386 601L257 601L257 601L129 601L129 601L0 601Z" fill="#030b16"></path><path d="M0 465L129 465L129 532L257 532L257 461L386 461L386 537L514 537L514 499L643 499L643 443L771 443L771 522L900 522L900 479L900 601L900 601L771 601L771 601L643 601L643 601L514 601L514 601L386 601L386 601L257 601L257 601L129 601L129 601L0 601Z" fill="#040404"></path></svg>